# xmcd CD database file
#
# Track frame offsets:
#	183
#	42373
#	78190
#	97468
#	121190
#	145008
#	178825
#	209640
#	244548
#	270243
#	296790
#
# Disc length: 4336 seconds
#
# Revision: 5
# Processed by: cddbd v1.5.2PL0 Copyright (c) Steve Scherf et al.
# Submitted via: CDex 1.51
#
DISCID=a110ee0b
DTITLE=Miles Davis - Vol. 063 - Evolution of a Genius 1954-1956
DYEAR=1955
DGENRE=Jazz
TTITLE0=Bag's Groove
TTITLE1=The Man I love
TTITLE2=Budo
TTITLE3=S'posin'
TTITLE4=There is no Greater Love
TTITLE5=Just Squeeze Me
TTITLE6=Vierd Blues
TTITLE7=Diane
TTITLE8=In Your Own Sweet Way
TTITLE9='round Midnight
TTITLE10=Well You Needn't
EXTD=Miles Dewey Davis, Jr.\nTrumpet, flugelhorn, composer\n\nFeaturing Milt Jackson, Thelonious Monk, John Colrane, Sonny Rollins, Percy Heath,\nKenny Clarke, Red Garland, Paul Chambers, Philly Joe JOnes, Tommy Flanagan,\nArt Taylor\n\n"1955 He formed a
EXTD=famous quintet with John Coltrane, Red Garland, Paul Chambers and\nPhilly Joe Jones. In July he tookpart in the Newport Jazz Festival...He also made records\nwith Oscar Pettiford and Charlie Mingus." YEAR: 1955
EXTT0=Hackensack,  N.J. Decemeber 1954\n\nMiles Davis and The Modern Jazz Giants\n\nMiles Davis (tp), Milt Jackson (vib), Thelonius Monk (p),\nPercy Heath (b), Kenny Clarke (d)
EXTT1=Hackensack,  N.J. Decemeber 1954\n\nMiles Davis and The Modern Jazz Giants\n\nMiles Davis (tp), Milt Jackson (vib), Thelonius Monk (p),\nPercy Heath (b), Kenny Clarke (d)
EXTT2=New York City, October 27, 1955\n\nThe Miles Davis Quintet\n\nMiles Davis (tp), John Coltrane (ts), Red Garland (p),\nPaul Chambers (b), Philly Joe Jones (d]\n
EXTT3=Hackensack, N.J. November 16, 1956\n\nThe New Miles Davis Quintet\n\nMiles Davis (tp), John Coltrane (ts), Red Garland (p),\nPaul Chambers (b), Philly Joe Jones (d)
EXTT4=Hackensack, N.J. November 16, 1956\n\nThe New Miles Davis Quintet\n\nMiles Davis (tp), John Coltrane (ts), Red Garland (p),\nPaul Chambers (b), Philly Joe Jones (d)
EXTT5=Hackensack, N.J. November 16, 1956\n\nThe New Miles Davis Quintet\n\nMiles Davis (tp), John Coltrane (ts), Red Garland (p),\nPaul Chambers (b), Philly Joe Jones (d)
EXTT6=Hackensack, N.J. March 16, 1956\n\nThe Miles Davis Quintet\n\nMiles Davis (tp), Sonny Rollins (ts), Tommy Flanagan (p),\nPaul Chambers (b),Art Taylor (d]\n\n\n
EXTT7=Hackensack, N.J., May 11, 1956\n\nThe Miles Davis Quintet\n\nMiles Davis (tp), John Coltrane (ts),  Red Garland (p),\nPaul Chambers (b), Philly Joe Jones (d)
EXTT8=Hackensack, N.J., May 11, 1956\n\nThe Miles Davis Quintet\n\nMiles Davis (tp), John Coltrane (ts),  Red Garland (p),\nPaul Chambers (b), Philly Joe Jones (d)
EXTT9=New York City, September 10, 1956\n\nThe Miles Davis Quintet\n\nMilesDavis (tp), John Coltrane (ts),  Red Garland (p),\nPaul Chambers (b),Philly Joe Jones (d)
EXTT10=Hackensack, N.J., October 1956\n\nThe Miles Davis Quintet\n\nMiles Davis (tp), John Coltrane (ts),  Red Garland (p),\nPaul Chambers (b), Philly Joe Jones (d)
PLAYORDER=
